<?xml version="1.0" standalone="no"?><!DOCTYPE svg PUBLIC "-//W3C//DTD SVG 1.1//EN"
        "http://www.w3.org/Graphics/SVG/1.1/DTD/svg11.dtd">
<svg t="1662396647507" class="icon" viewBox="0 0 1024 1024" version="1.1" xmlns="http://www.w3.org/2000/svg"
     p-id="4095" width="16" height="16">
    <path d="M368.040048 808.208072v131.907956a6.469998 6.469998 0 0 0 6.465998 6.461998h44.629985c24.881992 0 46.943984 16.729994 53.659982 40.683986a6.483998 6.483998 0 0 0 6.219998 4.715999h63.867979a6.481998 6.481998 0 0 0 6.223998-4.717999c6.715998-23.953992 28.77799-40.681986 53.653982-40.681986h44.633985a6.465998 6.465998 0 0 0 6.459998-6.461998v-131.907956H368.040048z"
          fill="#F58E6F" p-id="4096"></path>
    <path d="M158.906117 360.54822l0.79 8.105998c7.577997 77.661974 41.491986 151.68195 95.507968 208.42193 52.115983 54.729982 80.815973 128.059957 80.815973 206.487932v7.389997h349.863884v-7.389997c0-38.461987 7.359998-76.319975 21.883993-112.523963 14.325995-35.725988 35.103988-68.353977 61.755979-96.981968 53.105982-57.125981 85.155972-128.151957 92.68397-205.403931l0.789999-8.105998H158.906117z m599.797801 203.443933c-27.893991 29.96199-49.647984 64.127979-64.655978 101.545966-14.291995 35.643988-21.969993 72.825976-22.855993 110.637963H350.716054c-1.751999-79.447974-31.711989-153.525949-84.809972-209.28793-49.867983-52.383983-81.855973-120.13196-90.60997-191.559937h671.313777c-8.599997 70.857976-38.893987 135.939955-87.905971 188.663938z"
          fill="#4A555F" p-id="4097"></path>
    <path d="M195.396105 392.56821c11.281996 60.59198 40.203987 117.473961 82.995973 162.427946 52.297983 54.921982 83.341972 126.589958 88.78797 203.935932h287.597905c2.529999-34.073989 10.327997-67.545978 23.269992-99.811967 15.803995-39.399987 38.691987-75.359975 68.023977-106.863964 42.021986-45.207985 69.543977-99.965967 80.483974-159.689947H195.396105z"
          fill="#71CCE0" p-id="4098"></path>
    <path d="M336.020058 776.188082v150.43595h349.857884v-150.43595H336.020058z m335.079889 135.655955H350.798054v-120.87796H671.099947v120.87796z"
          fill="#4A555F" p-id="4099"></path>
    <path d="M336.020058 911.844037v28.273991c0 21.219993 17.265994 38.483987 38.485988 38.483987h44.629985c10.583996 0 19.969993 7.115998 22.827992 17.303994C446.600022 1012.448004 461.836017 1024 479.014011 1024h63.867979c17.183994 0 32.419989-11.551996 37.055987-28.093991 2.857999-10.189997 12.237996-17.303994 22.821993-17.303994h44.633985c21.219993 0 38.481987-17.263994 38.481987-38.483987v-28.273991H336.020058z m335.079889 28.273991c0 13.069996-10.631996 23.705992-23.701992 23.705992h-44.633985c-17.179994 0-32.415989 11.551996-37.051988 28.093991-2.857999 10.189997-12.243996 17.303994-22.825992 17.303994h-63.867979c-10.583996 0-19.963993-7.115998-22.821992-17.303994-4.637998-16.541995-19.873993-28.093991-37.057988-28.093991h-44.629985c-13.071996 0-23.707992-10.633996-23.707992-23.705992v-13.493996h320.299893v13.493996z"
          fill="#4A555F" p-id="4100"></path>
    <path d="M336.020058 776.188082v163.929946c0 21.219993 17.265994 38.483987 38.485988 38.483987h44.629985c10.583996 0 19.969993 7.115998 22.827992 17.303994C446.600022 1012.448004 461.836017 1024 479.014011 1024h63.867979c17.183994 0 32.419989-11.551996 37.055987-28.093991 2.857999-10.189997 12.237996-17.303994 22.821993-17.303994h44.633985c21.219993 0 38.481987-17.263994 38.481987-38.483987v-163.929946H336.020058z m335.079889 163.929946c0 13.069996-10.631996 23.705992-23.701992 23.705992h-44.633985c-17.179994 0-32.415989 11.551996-37.051988 28.093991-2.857999 10.189997-12.243996 17.303994-22.825992 17.303994h-63.867979c-10.583996 0-19.963993-7.115998-22.821992-17.303994-4.637998-16.541995-19.873993-28.093991-37.057988-28.093991h-44.629985c-13.071996 0-23.707992-10.633996-23.707992-23.705992v-149.151951h320.299893v149.151951z"
          fill="#4A555F" p-id="4101"></path>
    <path d="M343.408056 818.724068h335.079889v14.777995h-335.079889zM343.408056 865.468053h335.079889v14.777995h-335.079889zM409.480034 476.200182c-22.557993-22.555993-34.979988-52.543983-34.979988-84.443972v-21.329993h-14.777995v21.329993c0 35.847988 13.959995 69.547977 39.309987 94.891968 22.551993 22.557993 34.973988 52.545983 34.973988 84.443972v212.48393h14.777995V571.09215c0-35.843988-13.955995-69.545977-39.303987-94.891968zM647.395955 370.424217v21.329993c0 31.897989-12.421996 61.885979-34.973988 84.443972-25.347992 25.345992-39.309987 59.04398-39.309987 94.891968v212.48393h14.777995V571.09215c0-31.899989 12.421996-61.887979 34.979988-84.443972 25.347992-25.347992 39.303987-59.04798 39.303987-94.891968v-21.329993h-14.777995zM518.491998 570.378151l27.117991-129.859957a35.279988 35.279988 0 0 0-7.191998-29.57399 35.263988 35.263988 0 0 0-27.479991-13.077996 35.283988 35.283988 0 0 0-27.483991 13.075996 35.299988 35.299988 0 0 0-7.187997 29.57999l27.127991 129.855957-44.205985 211.687929 14.469995 3.019999 37.283987-178.56594 37.297988 178.56594 14.469995-3.019999-44.217985-211.687929z m-27.751991-132.875956a20.563993 20.563993 0 0 1 4.185999-17.239995c3.935999-4.841998 9.775997-7.617997 16.015994-7.617997s12.075996 2.777999 16.015995 7.619997a20.557993 20.557993 0 0 1 4.185999 17.231995l-20.195994 96.733968-20.207993-96.727968zM802.963903 196.948275a131.727956 131.727956 0 0 0-13.733995-6.043998 129.789957 129.789957 0 0 0 2.775999-26.707992c0-72.331976-58.84598-131.177956-131.175956-131.177956l-0.534 0.002C646.539955 11.248336 621.999963-1.49966 595.819972 0.14434c-37.105988 2.351999-66.167978 34.243989-66.167978 72.603976v177.593941c0 47.517984 38.659987 86.175971 86.175972 86.175971h172.763942c15.033995 0 29.07199-4.741998 39.519987-13.359995 11.617996-9.579997 18.867994-22.749992 21.557993-39.147987 5.715998-34.873988-13.055996-69.863977-46.705985-87.061971z m32.11999 84.671971c-2.091999 12.759996-7.601997 22.901992-16.371995 30.13799-7.807997 6.435998-18.505994 9.981997-30.11999 9.981997h-172.763942c-39.365987 0-71.395976-32.027989-71.395977-71.395976V72.748316c0-30.58199 22.979992-55.995981 52.325983-57.853981 1.24-0.08 2.471999-0.12 3.693999-0.12 20.507993 0 39.361987 11.229996 49.203983 29.30799l2.212 4.059999 4.617998-0.212c1.404-0.064 2.871999-0.132 4.339999-0.132 64.179979 0 116.395961 52.215983 116.395961 116.397961 0 10.017997-1.304 19.979993-3.877999 29.605991l-1.827999 6.835997 6.753998 2.122a116.369961 116.369961 0 0 1 17.961994 7.347997c27.913991 14.263995 43.523986 43.003986 38.851987 71.511976z"
          fill="#4A555F" p-id="4102"></path>
    <path d="M788.663908 224.936265a99.499967 99.499967 0 0 0-15.385995-6.293998l-21.963992-6.901997 5.949998-22.241993a98.095967 98.095967 0 0 0 3.313998-25.303992c0-55.001982-44.747985-99.747967-99.751966-99.747966-1.216 0-2.431999 0.06-3.595999 0.114l-15.005995 0.675999-7.187998-13.195995c-6.925998-12.715996-20.173993-20.617993-34.583988-20.617993-0.87 0-1.747999 0.028-2.643999 0.086-20.597993 1.302-36.729988 19.415994-36.729988 41.235986v177.595941c0 30.18799 24.559992 54.747982 54.749982 54.747982h172.763942c7.761997 0 14.691995-2.195999 19.527994-6.181998 5.647998-4.657998 9.093997-11.193996 10.535996-19.977994 3.497999-21.339993-8.559997-43.037986-29.99199-53.991982z"
          fill="#FFD452" p-id="4103"></path>
    <path d="M607.817968 179.72028V7.402338h-14.777995V194.500275h69.111977v61.00398h14.777995V179.72028zM709.157935 53.666322h14.777995v92.27197h-14.777995zM740.459924 328.746231l0.024-55.309982 14.779995 0.006-0.026 55.309982z"
          fill="#4A555F" p-id="4104"></path>
    <path d="M669.541948 248.116258c-13.993995 0-25.381992 11.387996-25.381992 25.383991s11.387996 25.385992 25.381992 25.385992c13.999995 0 25.385992-11.389996 25.385991-25.385992 0-13.997995-11.387996-25.383992-25.385991-25.383991z m0 35.991988a10.619996 10.619996 0 0 1-10.603997-10.607997 10.617996 10.617996 0 0 1 10.603997-10.605996 10.619996 10.619996 0 0 1 10.607996 10.605996 10.619996 10.619996 0 0 1-10.607996 10.607997zM716.571932 138.550294c-13.993995 0-25.381992 11.389996-25.381991 25.385992 0 13.995995 11.385996 25.383992 25.381991 25.383991 13.999995 0 25.385992-11.387996 25.385992-25.383991s-11.387996-25.385992-25.385992-25.385992z m0 35.991988a10.617996 10.617996 0 0 1-10.603996-10.605996 10.619996 10.619996 0 0 1 10.603996-10.607997 10.619996 10.619996 0 0 1 10.607997 10.607997 10.619996 10.619996 0 0 1-10.607997 10.605996zM656.127952 87.032311c-13.999995 0-25.385992 11.389996-25.385991 25.385992 0 13.995995 11.385996 25.385992 25.385991 25.385991s25.385992-11.389996 25.385992-25.385991c0.002-13.997995-11.385996-25.385992-25.385992-25.385992z m0 35.993988a10.619996 10.619996 0 0 1-10.607996-10.607996 10.619996 10.619996 0 0 1 10.607996-10.607997 10.619996 10.619996 0 0 1 10.607997 10.607997 10.619996 10.619996 0 0 1-10.607997 10.607996zM600.429971 216.978268c-13.999995 0-25.385992 11.387996-25.385992 25.383992 0 13.997995 11.387996 25.385992 25.385992 25.385991s25.385992-11.389996 25.385991-25.385991c0-13.995995-11.387996-25.383992-25.385991-25.383992z m0 35.991988a10.619996 10.619996 0 0 1-10.607997-10.607996c0-5.847998 4.757998-10.605996 10.607997-10.605997s10.607996 4.757998 10.607996 10.605997a10.619996 10.619996 0 0 1-10.607996 10.607996zM747.875922 230.058264c-13.993995 0-25.381992 11.389996-25.381992 25.385991 0 13.997995 11.385996 25.383992 25.381992 25.383992 13.999995 0 25.385992-11.387996 25.385991-25.383992s-11.387996-25.385992-25.385991-25.385991z m0 35.991988a10.617996 10.617996 0 0 1-10.603997-10.605997 10.619996 10.619996 0 0 1 10.603997-10.607996 10.619996 10.619996 0 0 1 10.607996 10.607996 10.619996 10.619996 0 0 1-10.607996 10.605997z"
          fill="#4A555F" p-id="4105"></path>
    <path d="M648.739955 40.518327h14.777995V94.420309h-14.777995zM593.039973 260.360254h14.777995v67.263977h-14.777995zM426.086029 0.14434c-26.251991-1.657999-50.729983 11.103996-64.483979 32.875989l-0.53-0.002c-72.329976 0-131.175956 58.84598-131.175956 131.177956 0 8.993997 0.932 17.945994 2.775999 26.703992a130.663957 130.663957 0 0 0-13.733996 6.049998c-33.655989 17.197994-52.427983 52.187983-46.707984 87.061971 2.689999 16.399995 9.939997 29.57199 21.557993 39.147987 10.443997 8.615997 24.477992 13.359996 39.519987 13.359995h172.763942c47.515984 0 86.175971-38.655987 86.175972-86.175971V72.748316c0.002-38.357987-29.05999-70.251977-66.161978-72.603976z m51.383982 250.197917c0 39.369987-32.029989 71.395976-71.395976 71.395976h-172.763942c-11.617996 0-22.311993-3.545999-30.11999-9.981997-8.769997-7.231998-14.277995-17.371994-16.369995-30.13799-4.675998-28.507991 10.933996-57.245981 38.845987-71.511976a115.987961 115.987961 0 0 1 17.963994-7.347997l6.753998-2.122-1.828-6.835997a114.639962 114.639962 0 0 1-3.877998-29.605991c0-64.181979 52.215983-116.397961 116.395961-116.397961 1.468 0 2.933999 0.066 4.333999 0.132l4.617998 0.212 2.211999-4.059999c10.429997-19.153994 30.76999-30.57199 52.907983-29.18799 29.34199 1.857999 52.321983 27.271991 52.321982 57.853981v177.595941z"
          fill="#4A555F" p-id="4106"></path>
    <path d="M424.082029 31.50833a41.575986 41.575986 0 0 0-2.629999-0.084c-14.409995 0-27.663991 7.901997-34.593988 20.623993l-7.183998 13.187995-15.005995-0.673999c-1.164-0.054-2.379999-0.114-3.595999-0.114-55.001982 0-99.745967 44.745985-99.745967 99.747966 0 8.573997 1.112 17.085994 3.309999 25.303992l5.943998 22.235993-21.953993 6.903997a99.517967 99.517967 0 0 0-15.385994 6.293998c-21.437993 10.955996-33.495989 32.653989-29.99199 53.999982 1.436 8.781997 4.883998 15.317995 10.535996 19.977994 4.831998 3.983999 11.765996 6.177998 19.527994 6.177998h172.763942c30.18399 0 54.743982-24.559992 54.743982-54.747982V72.748316c0-21.819993-16.131995-39.933987-36.737988-41.239986z"
          fill="#FFD452" p-id="4107"></path>
    <path d="M414.084033 7.402338V179.72028h-69.115978v75.783975h14.777996V194.500275h69.115977V7.402338zM297.966071 53.666322h14.777995v92.27197h-14.777995zM266.662081 273.440249h14.777996v55.309982h-14.777996z"
          fill="#4A555F" p-id="4108"></path>
    <path d="M352.356053 248.116258c-13.999995 0-25.385992 11.387996-25.385992 25.383991s11.385996 25.385992 25.385992 25.385992 25.385992-11.389996 25.385992-25.385992c0.002-13.997995-11.385996-25.383992-25.385992-25.383991z m0 35.991988a10.619996 10.619996 0 0 1-10.607996-10.607997 10.619996 10.619996 0 0 1 10.607996-10.605996 10.619996 10.619996 0 0 1 10.607996 10.605996 10.617996 10.617996 0 0 1-10.607996 10.607997zM305.326069 138.550294c-13.993995 0-25.381992 11.389996-25.381992 25.385992 0 13.995995 11.385996 25.383992 25.381992 25.383991 13.999995 0 25.385992-11.387996 25.385991-25.383991s-11.385996-25.385992-25.385991-25.385992z m0 35.991988a10.617996 10.617996 0 0 1-10.601997-10.605996 10.617996 10.617996 0 0 1 10.601997-10.607997 10.619996 10.619996 0 0 1 10.607996 10.607997 10.619996 10.619996 0 0 1-10.607996 10.605996zM365.774049 87.032311c-13.999995 0-25.385992 11.389996-25.385992 25.385992 0 13.995995 11.387996 25.385992 25.385992 25.385991 13.999995 0 25.385992-11.389996 25.385991-25.385991 0-13.997995-11.385996-25.385992-25.385991-25.385992z m0 35.993988a10.619996 10.619996 0 0 1-10.607997-10.607996 10.619996 10.619996 0 0 1 10.607997-10.607997 10.619996 10.619996 0 0 1 10.607996 10.607997 10.619996 10.619996 0 0 1-10.607996 10.607996zM421.47403 216.978268c-13.999995 0-25.385992 11.387996-25.385992 25.383992 0 13.997995 11.385996 25.385992 25.385992 25.385991 13.993995 0 25.381992-11.389996 25.381992-25.385991-0.002-13.995995-11.387996-25.383992-25.381992-25.383992z m0 35.991988a10.619996 10.619996 0 0 1-10.607996-10.607996 10.619996 10.619996 0 0 1 10.607996-10.605997 10.617996 10.617996 0 0 1 10.603997 10.605997 10.619996 10.619996 0 0 1-10.603997 10.607996zM274.022079 230.058264c-13.999995 0-25.385992 11.389996-25.385992 25.385991 0 13.997995 11.385996 25.383992 25.385992 25.383992s25.385992-11.387996 25.385992-25.383992c0.002-13.995995-11.385996-25.385992-25.385992-25.385991z m0 35.991988a10.619996 10.619996 0 0 1-10.607996-10.605997 10.619996 10.619996 0 0 1 10.607996-10.607996 10.619996 10.619996 0 0 1 10.607996 10.607996 10.619996 10.619996 0 0 1-10.607996 10.605997z"
          fill="#4A555F" p-id="4109"></path>
    <path d="M358.384051 40.518327h14.777995V94.420309h-14.777995zM414.084033 260.360254h14.777995v67.261977h-14.777995zM213.816099 655.450122l-7.403998-9.369997c-32.057989-40.509987-62.343979-78.771974-80.219973-126.109958-3.275999-8.677997-11.949996-13.575995-21.065993-11.913996-9.129997 1.663999-15.509995 9.311997-15.509995 18.591994v401.905867h14.777995V526.648165c0-3.099999 2.365999-3.867999 3.381999-4.053999 1.006-0.194 3.497999-0.3 4.589999 2.596 18.689994 49.487984 51.103983 90.44997 82.455972 130.061956l7.389998 9.347997c30.18799 38.285987 45.495985 86.253971 45.495985 142.573953 0 42.393986-0.558 121.78596-0.74 146.213951h-39.905987v-135.297955h-14.777995v150.075951h69.351977l0.058-7.331998c0.01-1.028 0.794-103.343966 0.794-153.661949-0.002-59.71998-16.377995-110.765963-48.671984-151.72195z"
          fill="#4A555F" p-id="4110"></path>
    <path d="M144.872122 695.976109h14.777995v271.70991h-14.777995zM200.236104 779.784081c-12.959996 0-23.499992 10.541996-23.499993 23.499992s10.539997 23.499992 23.499993 23.499992 23.499992-10.541996 23.499992-23.499992-10.539997-23.499992-23.499992-23.499992z m0 32.221989a8.731997 8.731997 0 0 1-8.721998-8.721997c0-4.807998 3.909999-8.721997 8.721998-8.721997s8.721997 3.913999 8.721997 8.721997a8.731997 8.731997 0 0 1-8.721997 8.721997z"
          fill="#4A555F" p-id="4111"></path>
    <path d="M152.262119 656.366122c-12.959996 0-23.499992 10.541996-23.499992 23.499992s10.539997 23.499992 23.499992 23.499992 23.499992-10.541996 23.499993-23.499992-10.539997-23.499992-23.499993-23.499992z m0 32.221989a8.731997 8.731997 0 0 1-8.721997-8.721997c0-4.807998 3.909999-8.721997 8.721997-8.721997s8.721997 3.913999 8.721998 8.721997a8.731997 8.731997 0 0 1-8.721998 8.721997zM97.006138 921.166034c-12.959996 0-23.499992 10.541996-23.499992 23.499992s10.539997 23.499992 23.499992 23.499993 23.499992-10.541996 23.499992-23.499993-10.539997-23.499992-23.499992-23.499992z m0 32.221989c-4.809998 0-8.721997-3.913999-8.721997-8.721997s3.909999-8.721997 8.721997-8.721997c4.811998 0 8.721997 3.913999 8.721997 8.721997s-3.911999 8.721997-8.721997 8.721997zM918.877865 508.056171c-9.071997-1.657999-17.789994 3.227999-21.069993 11.913996-17.881994 47.357984-48.179984 85.631972-80.253973 126.151958l-7.369998 9.325997c-32.293989 40.959986-48.669984 92.007969-48.669984 151.72395 0 50.317983 0.79 152.633949 0.798 153.661949l0.058 7.331998h69.351977v-150.075951h-14.777995v135.297955h-39.909987c-0.178-24.425992-0.74-103.817966-0.74-146.213951 0-56.315981 15.307995-104.283965 45.495985-142.573953l7.355998-9.303997c31.36199-39.623987 63.795979-80.597973 82.489972-130.103956 1.088-2.897999 3.569999-2.795999 4.589999-2.598 1.02 0.186 3.381999 0.952 3.381999 4.053999v401.905867h14.777995V526.648165c-0.002-9.279997-6.375998-16.923994-15.507995-18.591994z"
          fill="#4A555F" p-id="4112"></path>
    <path d="M864.353883 695.976109h14.777995v271.70991h-14.777995zM823.769896 779.784081c-12.959996 0-23.499992 10.541996-23.499992 23.499992s10.539997 23.499992 23.499992 23.499992 23.499992-10.541996 23.499993-23.499992-10.539997-23.499992-23.499993-23.499992z m0 32.221989a8.731997 8.731997 0 0 1-8.721997-8.721997 8.731997 8.731997 0 0 1 8.721997-8.721997 8.731997 8.731997 0 0 1 8.721998 8.721997 8.731997 8.731997 0 0 1-8.721998 8.721997z"
          fill="#4A555F" p-id="4113"></path>
    <path d="M871.741881 656.366122c-12.959996 0-23.499992 10.541996-23.499993 23.499992s10.539997 23.499992 23.499993 23.499992 23.499992-10.541996 23.499992-23.499992c0.002-12.957996-10.539997-23.499992-23.499992-23.499992z m0 32.221989a8.731997 8.731997 0 0 1-8.721998-8.721997 8.731997 8.731997 0 0 1 8.721998-8.721997 8.731997 8.731997 0 0 1 8.721997 8.721997 8.731997 8.731997 0 0 1-8.721997 8.721997zM926.993862 921.166034c-12.959996 0-23.499992 10.541996-23.499992 23.499992s10.539997 23.499992 23.499992 23.499993 23.499992-10.541996 23.499992-23.499993-10.537997-23.499992-23.499992-23.499992z m0 32.221989c-4.811998 0-8.721997-3.913999-8.721997-8.721997s3.911999-8.721997 8.721997-8.721997 8.721997 3.913999 8.721997 8.721997-3.909999 8.721997-8.721997 8.721997z"
          fill="#4A555F" p-id="4114"></path>
</svg>